<?xml version="1.0" encoding="UTF-8"?>
<svg width="30px" height="30px" viewBox="0 0 30 30" version="1.1" xmlns="http://www.w3.org/2000/svg" xmlns:xlink="http://www.w3.org/1999/xlink">
    <!-- Generator: Sketch 52.3 (67297) - http://www.bohemiancoding.com/sketch -->
    <title>mob-nav-calendar</title>
    <desc>Created with Sketch.</desc>
    <g id="mob-nav-calendar" stroke="none" stroke-width="1" fill="none" fill-rule="evenodd">
        <rect id="Rectangle" fill-rule="nonzero" x="0" y="0" width="30" height="30"></rect>
        <path d="M7.8458278,4 L22.1541722,4 C23.4914503,4 23.9763797,4.13923842 24.4652686,4.40069906 C24.9541574,4.66215969 25.3378403,5.04584256 25.5993009,5.53473144 C25.8607616,6.02362033 26,6.50854969 26,7.8458278 L26,22.1541722 C26,23.4914503 25.8607616,23.9763797 25.5993009,24.4652686 C25.3378403,24.9541574 24.9541574,25.3378403 24.4652686,25.5993009 C23.9763797,25.8607616 23.4914503,26 22.1541722,26 L7.8458278,26 C6.50854969,26 6.02362033,25.8607616 5.53473144,25.5993009 C5.04584256,25.3378403 4.66215969,24.9541574 4.40069906,24.4652686 C4.13923842,23.9763797 4,23.4914503 4,22.1541722 L4,7.8458278 C4,6.50854969 4.13923842,6.02362033 4.40069906,5.53473144 C4.66215969,5.04584256 5.04584256,4.66215969 5.53473144,4.40069906 C6.02362033,4.13923842 6.50854969,4 7.8458278,4 Z M6,10 L6,23 C6,23.5522847 6.44771525,24 7,24 L23,24 C23.5522847,24 24,23.5522847 24,23 L24,10 L6,10 Z M14.9042969,15.4580078 C14.9042969,15.9039736 14.7692071,16.2832016 14.4990234,16.5957031 C14.2288398,16.9082047 13.8496118,17.1230463 13.3613281,17.2402344 L13.3613281,17.2695312 C13.9375029,17.3411462 14.3736964,17.5161119 14.6699219,17.7944336 C14.9661473,18.0727553 15.1142578,18.4479143 15.1142578,18.9199219 C15.1142578,19.6067743 14.8652369,20.1414369 14.3671875,20.5239258 C13.8691381,20.9064147 13.1578822,21.0976562 12.2333984,21.0976562 C11.458655,21.0976562 10.7718129,20.9690768 10.1728516,20.7119141 L10.1728516,19.4277344 C10.4495457,19.567709 10.7539046,19.6816402 11.0859375,19.7695312 C11.4179704,19.8574223 11.7467432,19.9013672 12.0722656,19.9013672 C12.570315,19.9013672 12.9381499,19.8167326 13.1757812,19.6474609 C13.4134126,19.4781893 13.5322266,19.2063821 13.5322266,18.8320312 C13.5322266,18.4967431 13.3955092,18.2591153 13.1220703,18.1191406 C12.8486314,17.979166 12.4124379,17.9091797 11.8134766,17.9091797 L11.2714844,17.9091797 L11.2714844,16.7519531 L11.8232422,16.7519531 C12.3766304,16.7519531 12.781086,16.6795255 13.0366211,16.534668 C13.2921562,16.3898105 13.4199219,16.1416033 13.4199219,15.7900391 C13.4199219,15.2496718 13.0813836,14.9794922 12.4042969,14.9794922 C12.1699207,14.9794922 11.9314791,15.0185543 11.6889648,15.0966797 C11.4464506,15.1748051 11.1770848,15.3098949 10.8808594,15.5019531 L10.1826172,14.4619141 C10.8336621,13.9931617 11.6100215,13.7587891 12.5117188,13.7587891 C13.2506547,13.7587891 13.834145,13.9085271 14.262207,14.2080078 C14.6902691,14.5074885 14.9042969,14.924151 14.9042969,15.4580078 Z M19.6308594,21 L18.1220703,21 L18.1220703,16.8691406 L18.1367188,16.1904297 L18.1611328,15.4482422 C17.9104805,15.6988945 17.7363286,15.8632809 17.6386719,15.9414062 L16.8183594,16.6005859 L16.0908203,15.6923828 L18.390625,13.8613281 L19.6308594,13.8613281 L19.6308594,21 Z M10.5,6.5 C10.2238576,6.5 10,6.72385763 10,7 C10,7.27614237 10.2238576,7.5 10.5,7.5 L19.5,7.5 C19.7761424,7.5 20,7.27614237 20,7 C20,6.72385763 19.7761424,6.5 19.5,6.5 L10.5,6.5 Z" id="Combined-Shape" fill="#787878" fill-rule="nonzero"></path>
    </g>
</svg>