<?xml version="1.0" encoding="UTF-8"?>
<svg width="30px" height="30px" viewBox="0 0 30 30" version="1.1" xmlns="http://www.w3.org/2000/svg" xmlns:xlink="http://www.w3.org/1999/xlink">
    <!-- Generator: Sketch 52.3 (67297) - http://www.bohemiancoding.com/sketch -->
    <title>mob-nav-contacts</title>
    <desc>Created with Sketch.</desc>
    <g id="mob-nav-contacts" stroke="none" stroke-width="1" fill="none" fill-rule="evenodd">
        <g id="Group-3">
            <rect id="Rectangle" fill-rule="nonzero" x="0" y="0" width="30" height="30"></rect>
            <path d="M15.4894535,18.5541177 C22.8251399,21.4645822 22.2455533,22.5689296 22.2455533,22.5689296 L22.2455533,25 L1.01075427,25 L1.01075427,22.5689296 C1.01075427,22.5689296 0.431950919,21.4645822 7.76685402,18.5541177 C7.76685402,18.5541177 10.710214,18.0011608 8.73178735,16.0477974 C8.07815682,15.3110047 7.63381298,14.412581 7.4449485,13.4459236 C7.40686015,13.4979989 7.34854802,13.5315639 7.28438735,13.5383441 C7.01809082,13.5383441 6.80192069,12.8639873 6.80192069,12.0322023 C6.80192069,11.2004172 7.01809082,10.5268436 7.28438735,10.5268436 L7.28438735,7.51534309 C7.28438735,7.51534309 7.28438735,5.00902275 10.6624372,5.00902275 C10.9984408,5.00902275 11.3179966,5.00902275 11.6273706,5.00197373 C11.9367445,4.9949247 12.2539506,5.00902275 12.5923039,5.00902275 C15.9703538,5.00902275 15.9703538,7.51534309 15.9703538,7.51534309 L15.9703538,10.5268436 C16.2366503,10.5268436 16.4528204,11.2012004 16.4528204,12.0322023 C16.4528204,12.8632041 16.2366503,13.5383441 15.9703538,13.5383441 C15.9061931,13.5315639 15.847881,13.4979989 15.8097926,13.4459236 C15.6208552,14.4125563 15.1765204,15.3109617 14.5229538,16.0477974 C12.5460936,18.0011608 15.4894535,18.5541177 15.4894535,18.5541177 Z M24.0853491,17.2414324 C29.4112798,19.331077 28.9922543,20.1237008 28.9922543,20.1237008 L28.9922543,22 L23.2120531,22 C23.2120531,22 23.7556113,20.5262785 17.1028973,17.8092706 C17.5172233,17.6306953 17.9644449,17.4435045 18.4805902,17.2414324 C18.4805902,17.2414324 20.6180115,16.8443373 19.1815767,15.4400147 C18.7077511,14.9130437 18.3849371,14.2679569 18.2471891,13.572806 C18.2191255,13.6100049 18.1768429,13.6338421 18.1304886,13.6385969 C17.937032,13.6385969 17.7796037,13.1545638 17.7796037,12.5577463 C17.7796037,11.9609288 17.9362488,11.4768957 18.1304886,11.4768957 L18.1304886,9.31519438 C18.1304886,9.31519438 18.1304886,7.51377664 20.5835496,7.51377664 C20.8279159,7.51377664 21.0597505,7.51377664 21.2845361,7.50907729 C21.5093217,7.50437793 21.7411563,7.51377664 21.9855226,7.51377664 C24.4385836,7.51377664 24.4385836,9.31519438 24.4385836,9.31519438 L24.4385836,11.4768957 C24.6320402,11.4768957 24.7886852,11.9609288 24.7886852,12.5577463 C24.7886852,13.1545638 24.6320402,13.6385969 24.4385836,13.6385969 C24.3922293,13.6338421 24.3499467,13.6100049 24.321883,13.572806 C24.1842092,14.2679822 23.8613858,14.9130877 23.3874955,15.4400147 C21.9463613,16.8443373 24.0853491,17.2414324 24.0853491,17.2414324 Z" id="course-nav-contacts_hover_" fill="#787878"></path>
        </g>
    </g>
</svg>