<?xml version="1.0" encoding="UTF-8"?>
<svg width="40px" height="40px" viewBox="0 0 40 40" version="1.1" xmlns="http://www.w3.org/2000/svg" xmlns:xlink="http://www.w3.org/1999/xlink">
    <!-- Generator: Sketch 52.5 (67469) - http://www.bohemiancoding.com/sketch -->
    <title>assignment_failed@</title>
    <desc>Created with Sketch.</desc>
    <g id="11/14" stroke="none" stroke-width="1" fill="none" fill-rule="evenodd">
        <g id="assignment_failed@" fill="#F35252" fill-rule="nonzero">
            <path d="M20,40 C8.954305,40 0,31.045695 0,20 C0,8.954305 8.954305,0 20,0 C31.045695,0 40,8.954305 40,20 C40,31.045695 31.045695,40 20,40 Z M20,37 C29.3888407,37 37,29.3888407 37,20 C37,10.6111593 29.3888407,3 20,3 C10.6111593,3 3,10.6111593 3,20 C3,29.3888407 10.6111593,37 20,37 Z M21.875,23.3164062 L19.015625,23.3164062 L18.4179688,11.8671875 L22.4726562,11.8671875 L21.875,23.3164062 Z M18.3710938,27.3242188 C18.3710938,26.6679655 18.5468732,26.1718767 18.8984375,25.8359375 C19.2500018,25.4999983 19.7617154,25.3320312 20.4335938,25.3320312 C21.0820345,25.3320312 21.5839826,25.5039045 21.9394531,25.8476562 C22.2949237,26.191408 22.4726562,26.6835905 22.4726562,27.3242188 C22.4726562,27.9414093 22.2929705,28.4277326 21.9335938,28.7832031 C21.574217,29.1386737 21.074222,29.3164062 20.4335938,29.3164062 C19.7773405,29.3164062 19.269533,29.1425799 18.9101562,28.7949219 C18.5507795,28.4472639 18.3710938,27.9570344 18.3710938,27.3242188 Z" id="Oval"></path>
        </g>
    </g>
</svg>