<?xml version="1.0" encoding="UTF-8"?>
<svg width="90px" height="90px" viewBox="0 0 90 90" version="1.1" xmlns="http://www.w3.org/2000/svg" xmlns:xlink="http://www.w3.org/1999/xlink">
    <!-- Generator: Sketch 55.2 (78181) - https://sketchapp.com -->
    <title>mail-large</title>
    <desc>Created with Sketch.</desc>
    <defs>
        <path d="M1.3881454,1.04100938 L0.992786407,1.04100938 L1.3881454,1.04100938 L0.719992404,0.539890072 C0.587444498,0.440478238 0.560582404,0.252437716 0.659994237,0.11988981 C0.716650605,0.0443486732 0.805566721,-0.000109142276 0.899993452,-0.000109142276 L31.1000065,-0.000109142276 C31.265692,-0.000109142276 31.4000065,0.134205433 31.4000065,0.299890858 C31.4000065,0.394317588 31.3555487,0.483233704 31.2800076,0.539890072 L30.6118546,1.04100938 L31.0072136,1.04100938 L30.6118546,1.04100938 L16.6000035,11.5499933 C16.2444465,11.8166634 15.7555535,11.8166634 15.3999965,11.5499933 L1.3881454,1.04100938 Z M32,2.04229143 L32,22.9987179 C32,23.5517108 31.5476379,24 31.0072136,24 L0.992786407,24 C0.444485615,24 0,23.5618648 0,22.9987179 L0,2.04229143 L0,4.86750781 L14.8341015,15.5105077 C15.5309644,16.0104849 16.4690356,16.0104849 17.1658985,15.5105077 L32,4.86750781 L32,2.04229143 Z" id="path-1"></path>
    </defs>
    <g id="mail-large" stroke="none" stroke-width="1" fill="none" fill-rule="evenodd">
        <g id="Group">
            <circle id="Oval" fill="#E8F5E9" cx="45" cy="45" r="45"></circle>
            <path d="M45,90 C69.8528137,90 90,69.8528137 90,45 C90,20.1471863 69.8528137,0 45,0 C20.1471863,0 0,20.1471863 0,45 C0,69.8528137 20.1471863,90 45,90 Z M45,89 C20.699471,89 1,69.300529 1,45 C1,20.699471 20.699471,1 45,1 C69.300529,1 89,20.699471 89,45 C89,69.300529 69.300529,89 45,89 Z" id="Oval" fill="#ADDEB3" fill-rule="nonzero"></path>
            <g id="16px---Mail" transform="translate(29.000000, 29.000000)">
                <g id="share">
                    <g id="Normal" transform="translate(0.000000, 4.000000)">
                        <mask id="mask-2" fill="white">
                            <use xlink:href="#path-1"></use>
                        </mask>
                        <use id="Mask" fill="#000000" xlink:href="#path-1"></use>
                        <g id="Success" mask="url(#mask-2)" fill="#3FB34F">
                            <g transform="translate(-2.000000, -6.000000)" id="Rectangle-5">
                                <rect x="0" y="0" width="36" height="36"></rect>
                            </g>
                        </g>
                    </g>
                </g>
            </g>
        </g>
    </g>
</svg>